<svg id="Capa_1" data-name="Capa 1" xmlns="http://www.w3.org/2000/svg" viewBox="0 0 641.87 632.68"><defs><style>.cls-1{fill:#161615;}.cls-2{fill:#f5cbaf;}.cls-3{fill:#9acee4;}.cls-4{fill:#f3bc84;}.cls-5{fill:#b6dc96;}.cls-6{fill:#d5eff7;}.cls-7{fill:#ec6c5f;}.cls-8{fill:#fdfdfd;}</style></defs><path class="cls-1" d="M153,493.93c-2.49-3.68.06-3.75,2.69-3.76,9.66-.07,19.33-.3,29-.13,4.16.07,6.77-1.23,8.66-5.08,4.42-9,10.73-16.88,17.25-24.42,8.18-9.47,11.43-20.4,12-32.56.49-10.39,6.69-14.18,16.5-10.3,6.27,2.48,9.52,7.61,11.47,13.68,2.74,8.54,1.91,17.09-.33,25.61-1.35,5.14-2.58,10.33-4.07,15.43-.89,3-.36,4.08,3.06,4,11.83-.21,23.66-.1,35.49-.12,4,0,8-.39,11.6,1.74,1-1.75-.3-2.4-.87-3.23-4.77-7-4-14.09,2.61-19.42,2.22-1.8,2.9-2.74,0-4.37a25.25,25.25,0,0,1-4.67-3.73c-8.46-8.09-6.35-19.49,4.44-24.22l3.18-1.38c-5.37-5.58-10.53-11-15.74-16.31-2.11-2.16-4.75-4.27-5.25-7.16-.78-4.58-3.19-5-7.18-5q-44.48.25-89,0a9.16,9.16,0,0,0-7.36,3.1c-11,11.42-22.1,22.67-33.25,33.9-1.17,1.18-2.21,3.39-4.45,2.41s-1.22-3.23-1.24-4.9c-.1-9.83-.23-19.67,0-29.49.1-3.84-.84-5.24-4.91-5A45.21,45.21,0,0,1,105.11,386c-13-8.2-20.1-20.06-21.65-35.25-1.07-10.47-.69-21-.45-31.47.11-4.66-1.4-5.33-5.56-5.27-16.16.26-32.32.15-48.48.12-10.49,0-15.4-4.83-15.42-15.16q-.08-42,0-84c0-8.84,4.67-13.55,13.58-13.59q28.76-.15,57.49-.08c2.66,0,4.37-.36,5.8-3.2,4.76-9.43,15.08-13.53,24.41-10.23,10,3.55,15.21,13,13,23.88-.45,2.2-.6,3.28,2.35,3.21,10.32-.26,20.66-.37,31-.2,3.68.07,4.3-1.31,4.28-4.62-.14-21.49-.12-43-.07-64.48.06-28.17,21-49.2,49.22-49.33q43.24-.19,86.48,0c3.44,0,5.06-1,6.62-4.23,8.91-18.68,23.83-28.79,44.65-28.87,53.66-.2,107.31-.09,161-.07,28.49,0,49.07,20.64,49.16,49.21,0,12.16.1,24.33-.07,36.49,0,2.94.5,3.94,3.74,3.82,5.75-.22,10.72,2.2,14.7,6.33,1.47,1.52,2.21,1.53,3.87,0,8.91-8,19.41-8.8,28.17-2.28,8.57,6.39,11,17.13,6,27.77-6.38,13.4-17.61,22.25-29.22,30.84-4.91,3.63-8.71,4.17-13.46,0-4.34-3.79-9.24-6.94-14.25-10.62-1.56,5.45-3.07,10.66-6,15.31-9.67,15.48-23.66,23.53-41.86,23.76-4,0-4.9,1.15-4.78,5,.29,9.48.15,19,.09,28.49,0,1.9.94,4.51-1.26,5.46-2.51,1.09-3.71-1.64-5.15-3.06-11-10.89-22-21.79-32.9-32.85a8.69,8.69,0,0,0-7-2.88c-7.66.16-15.34.29-23-.06-9.09-.4-14.79,3.11-19.08,11.53-8.48,16.69-23,25-41.62,25.58-15.16.44-30.33.2-45.49,0-3.41,0-4.5.7-4.46,4.31.21,18.33.18,36.66.06,55,0,2.81.62,3.6,3.51,3.56q25-.3,50-.16c3.48,0,4.52-1,4.42-4.48-.25-9.32-.17-18.66-.11-28,.06-9.1,5.14-14.09,14.35-14.09q43.74,0,87.48,0c9.58,0,14.71,5.16,14.71,14.88q0,46.23-.07,92.48c0,9.48-5.38,14.87-14.85,14.91-14.49.06-29-.07-43.48,0-1.61,0-3.9-1.21-4.8,1.08-.79,2,.39,3.76,1.45,5.55a120.63,120.63,0,0,0,18.41,23.37c2,2,3.74,4.29,5.83,6.18,11.46,10.39,15.48,23.64,15.27,38.65-.11,8.33,0,16.66.1,25a27.66,27.66,0,0,0,6.78,18.27c8.39,9.92,16.35,20.2,24.48,30.33,1.74,2.15,3.71,4.39-1.38,4.41-8.92-11.18-17.77-22.42-26.79-33.51A29,29,0,0,1,478.32,523c-1.18-11.47-.22-23-.73-34.44-.47-10.34-3.59-19.45-11-27.06-10.56-10.85-21.11-21.75-28.76-35-.57-1-1.53-1.75-2.19-2.71-1.57-2.25-3.47-2.22-5.63-1a14.91,14.91,0,0,0-7.85,13.55c-.11,7.66,2.8,14.25,7.07,20.39,5,7.24,10.42,14.24,14.87,21.88,1.34,2.29,1.8,4.32.6,7-8.9,19.83-8.77,39,4.62,57.07.78,1.05,1.92,2.21.4,3.43-1.83,1.46-2.6-.34-3.53-1.4-2-2.24-2.92-5.33-5.9-7.66,0,8,0,15.36,0,22.68,0,12-7.33,19.68-19.44,19.93-7,.15-14,0-21,.07-1.16,0-2.65-.72-3.53,1.18A56.55,56.55,0,0,0,418.24,590a11.52,11.52,0,0,1,7.31,4.62c7.3,9.28,14.76,18.43,22.16,27.63-.86,5.15-2.85,2.55-4.47.56-6.42-7.86-12.9-15.68-19.06-23.75a14.36,14.36,0,0,0-9.2-5.94,57,57,0,0,1-23.33-10.81,12,12,0,0,0-7.78-2.5q-28,.11-55.94,0c-16.22,0-22.87-6.83-22.9-23.19,0-14.48-.14-29-.25-43.45a11.29,11.29,0,0,0-.51-4.38c-.56-1.25-2-2.89-3.41-2.2-1.81.9.06,2.22.52,3.27,3.58,8.22,1.12,15-7.78,20.76,3.33,3.86,5.57,8.12,4.51,13.44a14.51,14.51,0,0,1-9,11.11c-1.71.73-1.57,1.3-.77,2.89,6.5,12.87.18,23.07-14.2,23.11-17.65,0-35.33.68-53,0-21.76-.91-43.46-3.09-65.28-2-2.93.14-4.07-1-3-3.94,24.3-.84,48.5,1.54,72.76,2.22,16,.45,32,0,48-.12a26.83,26.83,0,0,0,4.49-.15c4.69-.81,7.95-3.49,9-8.18s-.55-8.51-4.32-11.44c-2.63-2-5.75-1.2-8.69-1.42-1.37-.1-2.9-.05-2.74-2,.12-1.52,1.48-1.57,2.67-1.59,3.49,0,7,.2,10.47-.15a11,11,0,0,0,10-11.61c-.47-5.89-4.73-9.55-11.14-9.56-1.66,0-3.33,0-5,0-1.2,0-2.55-.16-2.53-1.7s1.42-1.63,2.59-1.68c3.65-.14,7.35.06,11-.4,6.12-.77,10-5.87,9.46-12a10.84,10.84,0,0,0-11-10.06c-2.5,0-5,.05-7.5,0-1.29,0-2.95.06-2.82-1.9.11-1.57,1.54-1.5,2.7-1.52,2.49,0,5,0,7.49-.06,7.69-.08,12.23-4.09,12.21-10.74,0-6.81-4.83-11.11-12.5-11.12-13.32,0-26.65,0-40,0-6,0-6.71-.81-5.44-6.8,1.17-5.52,2.66-11,4.14-16.43,1.94-7.14,3.27-14.31,1.39-21.67-1.49-5.82-4-11-9.75-13.78-6.69-3.28-11.27-.95-11.45,6.31a57.36,57.36,0,0,1-14.72,37.72,125.76,125.76,0,0,0-16.32,23.25c-1.86,3.48-4.56,4.68-8.48,4.85C175.58,494,164.26,493.92,153,493.93ZM423.43,158c0-5.19,0-9.17,0-13.15-.16-24.53-19.42-44.47-43.91-44.56q-83.46-.3-166.92.1c-23.7.1-43,19.68-43.45,43.36-.15,8.16,0,16.32,0,24.48.06,22.49-.08,45,.29,67.47.2,12.64,5.71,23.11,15.3,31.35s21.16,10.94,33.53,10.15c4.51-.29,5.67,1.24,5.54,5.59-.3,10.25-.1,20.51-.1,30.84,1.77-.09,2.3-1.26,3.06-2,10-10.06,20-20,29.75-30.31a12.4,12.4,0,0,1,10-4.15q56.22.21,112.45.06a43.85,43.85,0,0,0,40.51-26.72c1.25-2.95,1-4.45-2-6.32-14.18-8.91-27.06-19.4-37.81-32.34-6.12-7.38-11.05-15.45-13.65-24.74A31.35,31.35,0,0,1,378.81,152c12.05-8.12,27.75-7.84,38.76.76C419.35,154.19,421,155.8,423.43,158ZM141,425a2.32,2.32,0,0,0,2.82-1c9.81-10,19.72-19.85,29.34-30a14,14,0,0,1,11.28-4.79c30,.23,60,.08,89.94.16,2.88,0,4.66-.38,6.18-3.4,3.69-7.34,11.47-9.53,19.15-6,4.05,1.84,5.26,1.06,5.29-3.57s-.19-9.33-.08-14c.24-9.93,6.51-17.08,16.37-18.22,3.36-.39,4.43-1.37,4.4-4.8q-.25-27,0-54c0-3.52-.91-4.43-4.41-4.39q-27.48.29-55,.05a9.26,9.26,0,0,0-7.36,3.13c-11.14,11.47-22.42,22.8-33.69,34.15-1.12,1.13-2.3,2.8-4.22,1.83-1.58-.81-1.22-2.6-1.21-4.06,0-9.33.14-18.66.18-28,0-6.89,0-6.89-6.82-6.95-24-.22-43-16.3-47.22-40-1.1-6.26-.57-12.63-.67-19,0-1.88.17-3.72-2.66-3.69-11.49.14-23,.1-34.47.32-4.24.08-6.33,2-6.3,6.88.24,34.15.15,68.29.14,102.44,0,1.57.7,3.63-1.31,4.41-1.76.69-2.55-1.18-3.57-2.15-3.49-3.34-7.27-6.46-10.3-10.18-4.33-5.32-9.59-6.92-16.21-6.32-3,.28-4,.9-3.91,4,.2,9.32,0,18.65.11,28a43.12,43.12,0,0,0,10.88,28.79c10,11.41,22.93,15.49,37.64,14.75,4.3-.22,5.88,1.1,5.74,5.58C140.84,405.06,141,415.05,141,425ZM504.35,276.69l1.18-.8q0-12.88,0-25.76c0-9.65,0-9.65,9.64-9.94,20.44-.59,38.58-15.45,42.44-34.51.66-3.25.25-5.62-2.15-8.06A42.66,42.66,0,0,1,546,182.51c-4.13-11.15-.4-21.55,10-27.25,2.36-1.3,2.77-2.77,2.75-5.11-.08-13,.06-26-.07-39-.25-24.89-19.23-43.94-44.17-44Q433,67,351.51,67.28c-17.23.08-30.1,8.4-38.78,23.19-1,1.65-2.27,3.32-1.84,5.84h4.9q30.49,0,61,0c29.61,0,50.29,20.64,50.44,50.25,0,3.22,0,6.43,0,10.61,2-1.75,3.11-2.73,4.24-3.63,9.86-7.74,20.84-9.53,32.43-5.11s18.38,13,20.29,25.19c1.52,9.67-1.81,18.4-6.48,26.65-6.68,11.78-16.21,21.07-26.33,29.81-3.73,3.21-7.61,6.25-12.37,10.15,9.41,0,17.65.12,25.88-.07a8.61,8.61,0,0,1,7,2.95c8.7,9,17.57,17.77,26.33,26.68C500.32,272,502.29,274.39,504.35,276.69ZM426.3,420c-9-1.42-16.81-1.23-22.83,6.5-3,3.89-7.12,7-10.82,10.33-1.15,1-2.14,2.92-4.15,2s-1.28-2.88-1.29-4.45c0-18.81-.13-37.63.11-56.44.05-3.84-1-4.66-4.67-4.63q-30.47.23-60.94-.05c-3,0-4.32.46-4.28,4,.18,16.48.05,33,0,49.45a6.32,6.32,0,0,0,1.05,4.22c4,5.26,3.47,10.59.7,16.38-1.81,3.8-2.83,8.27,1.09,11.77,7.45,6.65,7.55,15.86-.2,22.29-2.49,2.06-2.57,2.89-.05,5,7.62,6.38,7.68,15.41.13,21.81a7.2,7.2,0,0,0-2.73,6.38c.14,9.65.3,19.32,0,29-.1,3.74.9,4.66,4.65,4.64q50.21-.25,100.41,0c4,0,5.28-.8,5.24-5.08q-.33-37.2,0-74.42a21.28,21.28,0,0,0-3.59-12.52C415.56,442.91,416.33,430.77,426.3,420Zm54.39-241.34c.05-12.56-7.34-23.08-19-27.08A29.16,29.16,0,0,0,429,161.34c-4.25,5.47-4.2,5.43-8.33-.05-7.27-9.65-17.22-13.06-28.69-10.73s-19.51,9.1-22.48,20.82c-2.89,11.45,1.42,21.31,7.62,30.48,10,14.85,23.3,26.39,38,36.38,10,6.78,10.06,6.71,19.82-.22,14.6-10.37,28.06-21.93,38-37.08C477.33,194.18,480.67,187,480.69,178.67ZM391.54,432.5c5.08-4.66,10.13-9.1,14.94-13.79a10.41,10.41,0,0,1,8-3c24.15.12,48.29.09,72.44.09,10.06,0,13.19-3,13.22-13.06q.13-44.7.14-89.42c0-9.09-3.13-12.2-12.37-12.21q-42.72,0-85.43,0c-8.55,0-11.62,3.12-11.62,11.78q0,57.45,0,114.9C390.85,429.14,390.37,430.66,391.54,432.5ZM116.6,326.18l1.56-1.15V225.27c-2.91.7-5.6,1.81-8.33,1.89-3,.1-3.43,1.22-3.4,3.85.13,11.49,0,23,0,34.48,0,7.88-2.17,10.1-10,10.1q-29,0-58-.06c-7.63,0-9.34-1.63-9.42-9.44q-.19-21.22-.13-42.47c0-5.76,2.76-8.39,8.73-8.41,15.49-.06,31,0,46.47-.08,1.76,0,3.59.43,5.39-.5-.35-1.49-1.11-3-1-4.36.53-4.64-1.68-5.23-5.74-5.18-18.15.23-36.3.08-54.46.11-8.28,0-11.22,2.85-11.24,11q-.09,41,0,81.94c0,9.19,3.14,12.18,12.41,12.16,22.66,0,45.31,0,68-.17,2.88,0,5.14.65,7.07,2.8C108.52,317.39,112.58,321.77,116.6,326.18Zm315,141.88c0,26.77-.12,52.59.11,78.41,0,4.56-1.41,5.54-5.66,5.53q-53.23-.18-106.45.1c-4.42,0-6.2-1.06-6-5.88.37-10.48.09-21,.16-31.48,0-2.11-.25-3.45-2.88-3.46-3,0-2,2.1-2,3.48-.06,14.83-.12,29.66,0,44.48.09,10.79,6.36,16.83,17.29,16.86,13.17,0,26.33,0,39.49-.06,18.32,0,36.65,0,55-.07,10-.06,16.21-6,16-15.76-.37-14.78,1.36-29.63-1.59-44.34a22.86,22.86,0,0,1,.12-8.95c2-9.39,1.36-18.87,1.59-28.33C436.73,474.4,435.26,471.34,431.58,468.06Zm186-291.48c.24-10-4.53-16.76-12-19.34-7.25-2.52-15.26-.35-19.48,6.07-2.69,4.08-4,3.65-6.61,0-4.65-6.44-12.54-8.42-20.08-5.63a17.24,17.24,0,0,0-11.12,16.72,25.56,25.56,0,0,0,4.8,14c7.2,10.72,17.07,18.52,27.76,25.45,1.77,1.15,3,.58,4.46-.36a96.66,96.66,0,0,0,26.17-23.6C614.93,185.31,617.4,180.27,617.55,176.58ZM102.66,260.44c0-8.82-.21-16.58.06-24.32.2-5.61.39-10.79-6.33-13-2.27-.75-2.85-4.18-5.85-4.17q-26.72.11-53.41.17c-2.51,0-4.33,1.07-4.35,3.73-.07,13.71,0,27.41,0,42.33,6-5.55,11.2-10.16,16.19-15,3-2.9,5.78-2.71,8.72,0,2.33,2.13,4.89,4,7.07,6.31s3.71,1.84,5.7-.24c2.64-2.76,5.55-5.27,8.41-7.81,5-4.5,6.49-4.46,11.31.11Zm211,165.5c0-16.87,0-33.33,0-49.79,0-6.58,0-6.62,6.47-6.6,20.8,0,41.6,0,62.4.22,3.36,0,5-.32,5-4.44.05-4.43-2.17-4.28-5.2-4.21-5.49.13-11,.18-16.47.06-1.91-.05-5.25,1-5.15-2,.1-2.82,3.42-1.82,5.39-1.86,6-.13,12-.26,18,0,3.9.19,3.4-2.21,3.22-4.48s1.5-5.53-3.28-5.49c-20,.18-39.93-.06-59.9.26-9.87.16-15.53,6.52-15.52,16.38,0,18.47.16,36.94,0,55.41C308.6,422.9,309.82,424.7,313.67,425.94Zm-189-218.83a16.43,16.43,0,0,0-16.41-16.51,16.67,16.67,0,0,0-16.32,16.71c.13,8.52,7.82,16.2,16.36,16.34A16.43,16.43,0,0,0,124.64,207.11ZM305,416.88c0-7.23,0-16.35,0-25.47a5.45,5.45,0,0,0-.79-3.31c-4-5.76-12-7.56-17.18-3.8-5.57,4-6.22,10.71-.57,16.41C292.42,406.71,299.21,411.87,305,416.88ZM76.65,272c-8.08-7.15-15.08-13.37-22.11-19.57-1.7-1.5-2.73.12-3.74,1-5.27,4.82-10.49,9.71-15.72,14.57-.71.67-1.71,1.26-1.41,2.42.37,1.4,1.64,1.52,2.8,1.52C49.36,272,62.24,272,76.65,272ZM317.54,440.05c.12-6.15-8.92-15.12-14.17-14.57-4.93.51-8.9,2.7-10.64,7.7s.07,8.74,3.94,11.83c1.3,1,2.63,2,3.89,3.1,3,2.54,6.21,3.93,10,1.91C314.85,447.75,317.26,444.2,317.54,440.05Zm-227.8-168c3.59,0,5.92,0,8.25,0,2,0,3.79-.42,4.42-2.49s.68-3.87-1.1-5.5q-7.17-6.6-14.19-13.35c-1.72-1.65-3.22-1.95-5.1-.13-3.22,3.13-6.61,6.09-9.93,9.12-.87.79-2,1.52-.47,2.72C77.38,267.05,81.57,274.83,89.74,272.05ZM322.05,469.78a9,9,0,0,0-3.62-7.32c-2.12-1.58-4.38-3-6.62-4.41-5.12-3.22-8.9-2.75-12.68,1.51s-3.88,9.44-.21,13.54a43.87,43.87,0,0,0,6.81,5.76,9,9,0,0,0,10.3.57A11,11,0,0,0,322.05,469.78Zm-.32,27.41c0-5.21-10-14.53-15-13.7-2.09.34-4.78.74-3.59,4.42,1,3.06.37,6.24-.84,9.24-.43,1-1.15,1.94-.6,3.25,1.6,3.8,8.06,7.82,11.58,7.1A10.62,10.62,0,0,0,321.73,497.19Zm-23.3,6.42-.34-.34a2.61,2.61,0,0,0-.32.62c0,.08.19.21.3.32Z"/><path class="cls-2" d="M153,493.93c11.31,0,22.63.06,34-.44,3.92-.17,6.62-1.37,8.48-4.85a125.76,125.76,0,0,1,16.32-23.25,57.36,57.36,0,0,0,14.72-37.72c.18-7.26,4.76-9.59,11.45-6.31,5.72,2.81,8.26,8,9.75,13.78,1.88,7.36.55,14.53-1.39,21.67-1.48,5.45-3,10.91-4.14,16.43-1.27,6-.52,6.79,5.44,6.8,13.32,0,26.65,0,40,0,7.67,0,12.47,4.31,12.5,11.12,0,6.65-4.52,10.66-12.21,10.74-2.5,0-5,0-7.49.06-1.16,0-2.59-.05-2.7,1.52-.13,2,1.53,1.87,2.82,1.9,2.5.06,5,0,7.5,0a10.84,10.84,0,0,1,11,10.06c.51,6.1-3.34,11.2-9.46,12-3.61.46-7.31.26-11,.4-1.17.05-2.57.13-2.59,1.68s1.33,1.68,2.53,1.7c1.66,0,3.33,0,5,0,6.41,0,10.67,3.67,11.14,9.56a11,11,0,0,1-10,11.61c-3.46.35-7,.11-10.47.15-1.19,0-2.55.07-2.67,1.59-.16,1.93,1.37,1.88,2.74,2,2.94.22,6.06-.62,8.69,1.42,3.77,2.93,5.4,6.8,4.32,11.44s-4.34,7.37-9,8.18a26.83,26.83,0,0,1-4.49.15c-16,.08-32,.57-48,.12-24.26-.68-48.46-3.06-72.76-2.22Q152.93,534.56,153,493.93Z"/><path class="cls-2" d="M447.71,622.22c-7.4-9.2-14.86-18.35-22.16-27.63a11.52,11.52,0,0,0-7.31-4.62,56.55,56.55,0,0,1-21.89-9.06c.88-1.9,2.37-1.17,3.53-1.18,7-.06,14,.08,21-.07,12.11-.25,19.47-7.89,19.44-19.93,0-7.32,0-14.64,0-22.68,3,2.33,3.92,5.42,5.9,7.66.93,1.06,1.7,2.86,3.53,1.4,1.52-1.22.38-2.38-.4-3.43-13.39-18.07-13.52-37.24-4.62-57.07,1.2-2.67.74-4.7-.6-7-4.45-7.64-9.84-14.64-14.87-21.88-4.27-6.14-7.18-12.73-7.07-20.39A14.91,14.91,0,0,1,430,422.8c2.16-1.26,4.06-1.29,5.63,1,.66,1,1.62,1.72,2.19,2.71,7.65,13.27,18.2,24.17,28.76,35,7.4,7.61,10.52,16.72,11,27.06.51,11.47-.45,23,.73,34.44a29,29,0,0,0,6.49,15.88c9,11.09,17.87,22.33,26.79,33.51-3.09,4.69-8.21,7-12.4,10.36-15.74,12.69-31.68,25.15-47.52,37.71C450.49,621.39,449.37,622.38,447.71,622.22Z"/><path class="cls-1" d="M525.1,339.22q0-25,0-49.94c0-9.21,4.21-13.33,13.44-13.36,17-.05,34-.19,50.94-.1,3.26,0,4.84-.59,5.72-4.17a19.36,19.36,0,0,1,18.19-14.5c8.54-.36,16.45,4.51,19.54,12,3.46,8.45,1.47,17.92-5.72,23.44-3.08,2.37-3.81,4.75-3.79,8.3.11,21.14,0,42.28,0,63.42,0,10.37-4.55,14.81-15,14.82-19.64,0-39.29.08-58.93-.05a8.91,8.91,0,0,0-7,2.82c-4,4.05-8,8-12.14,11.87-1,1-1.91,2.7-3.64,2.14-2.11-.68-1.52-2.7-1.52-4.29q0-26.22,0-52.44Zm3.71,49.32,1.93,1.57c3.36-3.87,6.74-7.72,10.06-11.63,2.1-2.46,4.62-3.26,7.9-3.24,20.31.14,40.64.08,61,0,7,0,9.78-2.69,9.81-9.54.11-21.49,0-43,.32-64.46.1-7.35-5-2.73-7.55-3.66-3.76-1.37-2.88,1.9-2.89,3.78-.07,11.5,0,23-.08,34.48,0,6.09-2,8.12-8.13,8.15q-27,.12-54,.08c-6.12,0-7.94-1.92-7.94-8.11,0-12.33,0-24.65,0-37,0-8.51,1.61-10.24,10.15-10.29,14.49-.08,29-.08,43.47-.17,1.23,0,2.8.68,3.64-.67,1-1.64-3.38-8.36-5.43-8.36-17.82,0-35.64-.06-53.47.07-5.86,0-8.76,2.85-8.77,8.59C528.76,321.63,528.81,355.08,528.81,388.54Zm14-55.87c.69-.05,1.11.05,1.28-.11,4.05-3.7,8.19-7.31,12.07-11.19,3.07-3.05,5.84-3.09,9.17-.44,2.94,2.34,5.71,7,8.83,6.49,3.36-.56,6.15-4.72,9.11-7.39,5.89-5.3,6.77-5.22,12.71.42,3,2.86,5.47,6.4,9.48,8.55,0-10.11,0-19.76,0-29.41,0-4.1-2.73-7.16-6.95-7.19-17-.1-33.94,0-50.92,0-3,0-4.74,1.43-4.75,4.49C542.75,308.8,542.77,320.71,542.77,332.67Zm87.9-55.19c0-9.48-6.9-16.39-16.38-16.4a16.12,16.12,0,0,0-16.45,16.48c.08,8.61,7.84,16.5,16.26,16.53A16.91,16.91,0,0,0,630.67,277.48Zm-49,62.83c-6.94-6.16-12.78-11.3-18.55-16.52-1.76-1.6-3.08-1.29-4.65.24-4.4,4.3-8.9,8.5-13.35,12.76-.7.67-1.7,1.3-1.34,2.45s1.57,1.06,2.54,1.06C557.54,340.32,568.81,340.31,581.62,340.31Zm12.7,0H601c1.66,0,3.6.33,4.27-1.67s.57-3.87-1.31-5.41-3.41-3.16-5.09-4.77c-10.3-9.81-10.3-9.82-19.95.5a4,4,0,0,1-.36.35c-1.31,1-1.58,1.91-.15,3.13C583.41,336.66,587.54,342.67,594.32,340.28Z"/><path class="cls-1" d="M134,108c-.09,9-5.1,16.06-13.54,19.29-1.6.61-3.83.54-2.17,3.39.85,1.47-.55,2.42-1.7,3.14-2.1,1.33-4.24,2.62-6.37,3.91-3.55,2.17-6.79,3.5-6.06,9.53.94,7.78-8.66,12.26-16,7.9-2.74-1.63-4.53-1.58-7,.16s-5.36,3.34-8.07,4.95c-1.4.83-2.81,2.12-4.51.75-1.51-1.22-2.73-3.08-1.89-4.81,4-8.29-.8-14.32-5-20.51-6.32-9.39-8-18.9-1-28.7a3.18,3.18,0,0,0,.34-3.21A6.26,6.26,0,0,1,64,96c2.66-1.62,5.58-1.51,7.78.79,1.59,1.64,3.26,1.3,5,1.19a20,20,0,0,1,13.26,3.47c2.87,2.06,3.94,1.92,5.39-1.53,3.3-7.82,11.12-12.21,19.68-11.74,8.35.46,15,5.61,17.9,13.66A22.38,22.38,0,0,1,134,108ZM114.71,130.7c-2.1-.71-3-1.07-4-1.33a22.37,22.37,0,0,1-16.07-15C91.4,104.9,85.16,100.73,75.1,102c-2,.25-3.84.68-5.14-1.65a2.78,2.78,0,0,0-4.24-1.14c-1.82,1.19-1.49,2.79-.55,4.36a3.11,3.11,0,0,1-.3,4c-6.69,8.33-5.94,16.76-.27,25.3,4.79,7.24,10.13,14.41,4.93,25.2ZM97.38,107.47a16.28,16.28,0,0,0,15.78,17.13,16.83,16.83,0,0,0,17.23-15.92c.47-8.71-6.71-16.36-15.71-16.72C105.19,91.57,97.69,98.29,97.38,107.47Zm-8.24,43.24c2.4,2.72,5,2.86,7.77,1.76a5.51,5.51,0,0,0,3.78-4.74,4.18,4.18,0,0,0-.46-2.82c-.77-.93-1.82,0-2.58.49C94.84,147.07,92.1,148.85,89.14,150.71Z"/><path class="cls-1" d="M91,414.6c1.39-2.17,2.4-4.1,3.74-5.78,5.11-6.4,14-9.63,20.93-6.88,7.57,3,14.23,8.55,14.93,17.68a20.88,20.88,0,0,1-11.48,20c-4.45,2.23-4.74,4.52-.72,7.78,1.64,1.34,3.77,2.08,5.57,3.25a5.42,5.42,0,0,1,2.71,5c-.13,2.22-2.16,2.2-3.65,2.74-1.72.63-3.45,1.24-5.2,1.74-4,1.14-7,2.29-7.77,7.73-1.11,7.77-11,10.11-16.84,4.32-2.21-2.19-3.77-2.45-6.38-1.3-3,1.33-6.22,2.3-9.38,3.33-1.51.49-3.2,1.59-4.58-.16-1.18-1.5-2-3.51-.84-5.12,5-7.14,2.2-14-.51-20.86-4.08-10.25-3.4-19.5,5-27.38a3.46,3.46,0,0,0,1-3.12c-.24-3.37,1.18-5.93,4.36-7s5.81.21,7.74,3A7.84,7.84,0,0,0,91,414.6ZM76.59,470.41l45.88-15.85c-3-1.92-5.26-3.18-7.29-4.8s-3.21-4.21-4.31-6.63c-.73-1.59-2.15-1.31-3.39-1.55-10.53-2.11-16.44-8.71-17-19.64-.2-3.89-3.31-5.45-5.44-7.34-1.89-1.69-4.13.1-3.78,3,.19,1.64,1,3.15-.72,4.49-8.83,6.83-9,15.5-5.41,25.09C77.89,454.61,81.34,462.11,76.59,470.41Zm34.3-65.3a16.37,16.37,0,0,0-17,16c-.33,8.66,7.45,16.73,16.32,16.94,8.59.2,16.44-7.3,16.66-15.93A16.53,16.53,0,0,0,110.89,405.11ZM94.73,468.39c2.18,2.76,4.53,3.78,7.54,2.95a5.7,5.7,0,0,0,4.37-4.27c.44-1.87.35-3.45-2.4-2.32C101.22,466,98.14,467.1,94.73,468.39Z"/><path class="cls-1" d="M543.77,454.49c.2,6.07-2.82,11.2-4.87,16.6-2.11,5.57-3.87,11-.17,16.65,1.26,1.91.64,4-.61,5.6-1.46,1.88-3.33.63-5,0-1.87-.68-3.77-1.31-5.57-2.16-4.11-1.93-7.39-2.83-11.84.79-6.36,5.18-15,.44-15.63-8.22-.24-3.13-1.39-4.33-4-5.19-2.83-.94-5.6-2.08-8.34-3.27-1.56-.67-4.08-.52-4.07-2.93s1.08-5,3.51-5.55c7.17-1.61,9.41-7.18,11.55-13.08,1-2.8,2.3-5.51,3.51-8.24,3.34-7.52,9.29-11.46,17.3-12.49,2.3-.29,4.35-.41,6-2.72s4.52-2.68,7.22-1.47,4.32,3.34,4,6.3a6.48,6.48,0,0,0,2,5.69A19.09,19.09,0,0,1,543.77,454.49Zm-9,35.66c-4.07-7.54-2-14.16.77-20.8,1.22-2.91,2.5-5.82,3.43-8.83,2.26-7.3,1-13.86-4.8-19.14-1.6-1.46-2.9-2.6-1.72-5,.81-1.63.67-3.39-1.35-4.15-1.62-.61-2.9.16-3.72,1.66-.72,1.33-1.4,2.65-3.28,2.58-11.58-.44-17.4,6.32-21,16.34-2.8,7.74-5.18,16.12-15.26,18.53Zm-24.68.11c2.08-.21,4.7-.6,5.18-2.84.44-2-2.32-1.72-3.66-2.44a21.14,21.14,0,0,0-4.11-1.72c-1.17-.34-2.5-1.87-3.54-.69s-.3,2.84.43,4.18A6.21,6.21,0,0,0,510.13,490.26Z"/><path class="cls-1" d="M127.28,60.7c.2-8,3.67-14.14,10.91-17.66s14.65-3.17,21.07,2.11c2.62,2.16,4,3,7,.22,6.11-5.62,15.87-5.91,22.78-1.5A19.77,19.77,0,0,1,197.87,65a32.63,32.63,0,0,1-5.63,12.13c-7.07,9.93-16.25,17.54-26.42,24.07-1.61,1-3.08,1.68-5,.48-11.49-7-21.83-15.28-29.06-26.86A26.25,26.25,0,0,1,127.28,60.7Zm67.35.1a16.26,16.26,0,0,0-9.9-14.88c-6.49-2.59-13.89-1.19-18.07,4.38-3.14,4.2-4.71,3.48-7.64-.11-4.42-5.41-10.55-7-17.13-4.63-6.31,2.23-10,7-10.77,13.74-.49,4.25.85,8.21,2.92,11.92,6.37,11.39,16.28,19.14,26.91,26.15a2.83,2.83,0,0,0,3.6,0c10.91-7.23,20.92-15.36,27.38-27.07A19.39,19.39,0,0,0,194.63,60.8Z"/><path class="cls-1" d="M305.42,24.3a25,25,0,0,1-4,11.77c-6.36,10-15.15,17.53-25.18,23.7-1.38.85-2.74,1.3-4.17.36-11.18-7.36-21.87-15.26-27.53-28-3.16-7.12-2.6-14.06,2.78-19.95,5-5.51,11.36-7.09,18.62-5,3.31,1,5.66,5.08,8.21,4.79,2.72-.3,5.13-3.82,8.41-4.83A17.69,17.69,0,0,1,305.42,24.3Zm-3.86-.39a13.84,13.84,0,0,0-8.73-12.79,13.06,13.06,0,0,0-15.67,4.19c-2.59,3.31-3.9,3.51-6.43,0-3.3-4.62-8.31-6-13.77-4.69s-8.79,5.18-10,10.67c-1.08,5.06.7,9.54,3.38,13.67,5.55,8.51,13.12,14.92,21.56,20.41,1.43.92,2.53,1.12,4,.08,8.55-5.87,16.57-12.3,22.13-21.25A19.88,19.88,0,0,0,301.56,23.91Z"/><path class="cls-1" d="M61,348.56a15.88,15.88,0,0,1-16.24,16,16.15,16.15,0,0,1,.28-32.3A15.77,15.77,0,0,1,61,348.56Zm-28.38-.29c-.1,6.61,5.6,12.61,12.11,12.76s12.42-5.47,12.67-12.19a12.7,12.7,0,0,0-11.85-12.93A12.66,12.66,0,0,0,32.64,348.27Z"/><path class="cls-1" d="M374.83,314.33A13.66,13.66,0,0,1,361.26,328a13.85,13.85,0,0,1-13.66-13.7,13.62,13.62,0,1,1,27.23,0Zm-3.74.13a10.27,10.27,0,0,0-9.74-10,9.82,9.82,0,1,0,9.74,10Z"/><path class="cls-3" d="M423.43,158c-2.48-2.23-4.08-3.84-5.86-5.23-11-8.6-26.71-8.88-38.76-.76a31.35,31.35,0,0,0-12.74,35.07c2.6,9.29,7.53,17.36,13.65,24.74,10.75,12.94,23.63,23.43,37.81,32.34,3,1.87,3.21,3.37,2,6.32A43.85,43.85,0,0,1,379,277.23q-56.22.12-112.45-.06a12.4,12.4,0,0,0-10,4.15c-9.74,10.27-19.79,20.25-29.75,30.31-.76.77-1.29,1.94-3.06,2,0-10.33-.2-20.59.1-30.84.13-4.35-1-5.88-5.54-5.59-12.37.79-23.86-1.84-33.53-10.15s-15.1-18.71-15.3-31.35c-.37-22.48-.23-45-.29-67.47,0-8.16-.15-16.32,0-24.48.43-23.68,19.75-43.26,43.45-43.36q83.46-.37,166.92-.1c24.49.09,43.75,20,43.91,44.56C423.45,148.86,423.43,152.84,423.43,158Z"/><path class="cls-4" d="M141,425c0-10-.2-20,.09-30,.14-4.48-1.44-5.8-5.74-5.58-14.71.74-27.66-3.34-37.64-14.75A43.12,43.12,0,0,1,86.87,346c-.11-9.33.09-18.66-.11-28-.07-3.09.94-3.71,3.91-4,6.62-.6,11.88,1,16.21,6.32,3,3.72,6.81,6.84,10.3,10.18,1,1,1.81,2.84,3.57,2.15,2-.78,1.31-2.84,1.31-4.41,0-34.15.1-68.29-.14-102.44,0-4.93,2.06-6.8,6.3-6.88,11.49-.22,23-.18,34.47-.32,2.83,0,2.63,1.81,2.66,3.69.1,6.32-.43,12.69.67,19,4.18,23.71,23.21,39.79,47.22,40,6.82.06,6.85.06,6.82,6.95,0,9.32-.14,18.65-.18,28,0,1.46-.37,3.25,1.21,4.06,1.92,1,3.1-.7,4.22-1.83,11.27-11.35,22.55-22.68,33.69-34.15a9.26,9.26,0,0,1,7.36-3.13q27.48.21,55-.05c3.5,0,4.44.87,4.41,4.39q-.28,27,0,54c0,3.43-1,4.41-4.4,4.8-9.86,1.14-16.13,8.29-16.37,18.22-.11,4.66.1,9.33.08,14s-1.24,5.41-5.29,3.57c-7.68-3.5-15.46-1.31-19.15,6-1.52,3-3.3,3.41-6.18,3.4-30-.08-60,.07-89.94-.16a14,14,0,0,0-11.28,4.79c-9.62,10.16-19.53,20-29.34,30A2.32,2.32,0,0,1,141,425Z"/><path class="cls-5" d="M504.35,276.69c-2.06-2.3-4-4.67-6.19-6.87-8.76-8.91-17.63-17.71-26.33-26.68a8.61,8.61,0,0,0-7-2.95c-8.23.19-16.47.07-25.88.07,4.76-3.9,8.64-6.94,12.37-10.15,10.12-8.74,19.65-18,26.33-29.81,4.67-8.25,8-17,6.48-26.65-1.91-12.17-8.81-20.82-20.29-25.19s-22.57-2.63-32.43,5.11c-1.13.9-2.2,1.88-4.24,3.63,0-4.18,0-7.39,0-10.61-.15-29.61-20.83-50.22-50.44-50.25q-30.48,0-61,0h-4.9c-.43-2.52.87-4.19,1.84-5.84,8.68-14.79,21.55-23.11,38.78-23.19q81.47-.34,162.92-.1c24.94,0,43.92,19.1,44.17,44,.13,13,0,26,.07,39,0,2.34-.39,3.81-2.75,5.11-10.37,5.7-14.1,16.1-10,27.25a42.66,42.66,0,0,0,9.51,15.11c2.4,2.44,2.81,4.81,2.15,8.06-3.86,19.06-22,33.92-42.44,34.51-9.62.29-9.62.29-9.64,9.94q0,12.89,0,25.76Z"/><path class="cls-6" d="M426.3,420c-10,10.76-10.74,22.9-2.12,36.1a21.28,21.28,0,0,1,3.59,12.52q-.28,37.2,0,74.42c0,4.28-1.21,5.1-5.24,5.08q-50.21-.25-100.41,0c-3.75,0-4.75-.9-4.65-4.64.26-9.65.1-19.32,0-29a7.2,7.2,0,0,1,2.73-6.38c7.55-6.4,7.49-15.43-.13-21.81-2.52-2.11-2.44-2.94.05-5,7.75-6.43,7.65-15.64.2-22.29-3.92-3.5-2.9-8-1.09-11.77,2.77-5.79,3.27-11.12-.7-16.38a6.32,6.32,0,0,1-1.05-4.22c0-16.48.15-33,0-49.45,0-3.5,1.23-4,4.28-4q30.48.23,60.94.05c3.66,0,4.72.79,4.67,4.63-.24,18.81-.13,37.63-.11,56.44,0,1.57-.7,3.55,1.29,4.45s3-1,4.15-2c3.7-3.36,7.79-6.44,10.82-10.33C409.49,418.78,417.31,418.59,426.3,420Z"/><path class="cls-7" d="M480.69,178.67c0,8.32-3.36,15.51-7.79,22.27-9.93,15.15-23.39,26.71-38,37.08-9.76,6.93-9.86,7-19.82.22-14.68-10-28-21.53-38-36.38-6.2-9.17-10.51-19-7.62-30.48,3-11.72,11.08-18.51,22.48-20.82s21.42,1.08,28.69,10.73c4.13,5.48,4.08,5.52,8.33.05a29.16,29.16,0,0,1,32.67-9.75C473.35,155.59,480.74,166.11,480.69,178.67Z"/><path class="cls-8" d="M391.54,432.5c-1.17-1.84-.69-3.36-.69-4.78q0-57.45,0-114.9c0-8.66,3.07-11.79,11.62-11.78q42.72,0,85.43,0c9.24,0,12.38,3.12,12.37,12.21q0,44.72-.14,89.42c0,10-3.16,13.06-13.22,13.06-24.15,0-48.29,0-72.44-.09a10.41,10.41,0,0,0-8,3C401.67,423.4,396.62,427.84,391.54,432.5Zm54-54.29v0c11,0,22,.05,32.95,0,6.34,0,8.82-2.47,8.85-8.76q.09-23.71,0-47.43c0-6.51-3-9.6-9.43-9.62q-32.44-.12-64.9,0c-6.11,0-9,2.79-9.09,8.77q-.22,24.22-.17,48.43c0,6.41,2.44,8.64,8.85,8.67C423.54,378.25,434.52,378.21,445.5,378.21Zm0,13.45v-.06c12,0,24,0,36,0,1.62,0,4.37,1,4.39-1.73S483.12,388,481.5,388q-36.22,0-72.43.12c-1.61,0-4.31-.84-4.17,1.94.12,2.19,2.61,1.55,4.13,1.56C421.18,391.69,433.34,391.66,445.49,391.66Zm-14.95,12.56v0c7.47,0,14.95.05,22.43,0,1.61,0,4.26.93,4.21-1.9,0-2.19-2.38-1.84-4-1.84q-22.18-.09-44.36-.1c-1.61,0-3.94-.33-3.95,1.86,0,2.71,2.56,1.92,4.21,1.94C416.25,404.25,423.39,404.22,430.54,404.22Z"/><path class="cls-8" d="M116.6,326.18c-4-4.41-8.08-8.79-12.06-13.24-1.93-2.15-4.19-2.82-7.07-2.8-22.65.14-45.3.14-68,.17-9.27,0-12.4-3-12.41-12.16q0-41,0-81.94c0-8.16,3-11,11.24-11,18.16,0,36.31.12,54.46-.11,4.06-.05,6.27.54,5.74,5.18-.15,1.38.61,2.87,1,4.36-1.8.93-3.63.49-5.39.5-15.49.06-31,0-46.47.08-6,0-8.73,2.65-8.73,8.41q0,21.24.13,42.47c.08,7.81,1.79,9.43,9.42,9.44q29,.06,58,.06c7.84,0,10-2.22,10-10.1,0-11.5.08-23,0-34.48,0-2.63.43-3.75,3.4-3.85,2.73-.08,5.42-1.19,8.33-1.89V325Zm-49-41.75v.06c-11.14,0-22.27,0-33.41,0-1.67,0-4.3-.69-4.31,1.94,0,2.24,2.45,1.7,4,1.71q33.67.07,67.34.06c1.54,0,4,.6,4-1.68.07-2.64-2.51-2.09-4.21-2.1C89.9,284.4,78.76,284.43,67.62,284.43Zm-14,15.24v.09c7.15,0,14.3,0,21.45,0,1.4,0,3.44.36,3.48-1.74s-2-1.87-3.41-1.87q-21,0-41.9,0c-1.44,0-3.48-.34-3.52,1.72s2,1.78,3.45,1.79C40,299.69,46.79,299.67,53.61,299.67Z"/><path class="cls-3" d="M431.58,468.06c3.68,3.28,5.15,6.34,5.05,10.53-.23,9.46.42,18.94-1.59,28.33a22.86,22.86,0,0,0-.12,8.95c2.95,14.71,1.22,29.56,1.59,44.34.24,9.79-6,15.7-16,15.76-18.32.1-36.65,0-55,.07-13.16,0-26.32.09-39.49.06-10.93,0-17.2-6.07-17.29-16.86-.12-14.82-.06-29.65,0-44.48,0-1.38-1-3.49,2-3.48,2.63,0,2.89,1.35,2.88,3.46-.07,10.5.21,21-.16,31.48-.17,4.82,1.61,5.9,6,5.88q53.22-.26,106.45-.1c4.25,0,5.7-1,5.66-5.53C431.46,520.65,431.58,494.83,431.58,468.06Zm-58.67,88.2v-.11c-3.83,0-7.66-.08-11.48,0-4.74.12-7.53,2.66-7.4,6.86.14,4.42,2.71,6.7,7,6.76,8,.1,16,.16,23.95,0,4.71-.1,7-2.54,6.88-6.71-.15-4.45-2.72-6.63-7-6.77C380.89,556.15,376.9,556.26,372.91,556.26Z"/><path class="cls-7" d="M617.55,176.58c-.15,3.69-2.62,8.73-6.08,13.31a96.66,96.66,0,0,1-26.17,23.6c-1.5.94-2.69,1.51-4.46.36-10.69-6.93-20.56-14.73-27.76-25.45a25.56,25.56,0,0,1-4.8-14,17.24,17.24,0,0,1,11.12-16.72c7.54-2.79,15.43-.81,20.08,5.63,2.61,3.61,3.92,4,6.61,0,4.22-6.42,12.23-8.59,19.48-6.07C613,159.82,617.79,166.62,617.55,176.58Z"/><path class="cls-3" d="M102.66,260.44,90.15,248.58c-4.82-4.57-6.27-4.61-11.31-.11-2.86,2.54-5.77,5.05-8.41,7.81-2,2.08-3.53,2.5-5.7.24s-4.74-4.18-7.07-6.31c-2.94-2.69-5.69-2.88-8.72,0-5,4.79-10.16,9.4-16.19,15,0-14.92,0-28.62,0-42.33,0-2.66,1.84-3.72,4.35-3.73q26.7-.08,53.41-.17c3,0,3.58,3.42,5.85,4.17,6.72,2.21,6.53,7.39,6.33,13C102.45,243.86,102.66,251.62,102.66,260.44ZM48,223.93a9.28,9.28,0,1,0,8.56,9.72A9.24,9.24,0,0,0,48,223.93ZM89.1,239.34a8,8,0,0,0,.4-15.94,8,8,0,0,0-8.2,8.07A7.71,7.71,0,0,0,89.1,239.34Z"/><path class="cls-3" d="M313.67,425.94c-3.85-1.24-5.07-3-5.05-6.48.16-18.47,0-36.94,0-55.41,0-9.86,5.65-16.22,15.52-16.38,20-.32,39.94-.08,59.9-.26,4.78,0,3.09,3.21,3.28,5.49s.68,4.67-3.22,4.48c-6-.3-12-.17-18,0-2,0-5.29-1-5.39,1.86-.1,3,3.24,1.93,5.15,2,5.48.12,11,.07,16.47-.06,3-.07,5.25-.22,5.2,4.21-.05,4.12-1.66,4.46-5,4.44-20.8-.18-41.6-.19-62.4-.22-6.49,0-6.48,0-6.47,6.6C313.68,392.61,313.67,409.07,313.67,425.94Zm42.78-67.06c-.34-.92-.84-1.89-2.24-1.92a2.33,2.33,0,0,0-2.56,1.85,2,2,0,0,0,1.87,2.42C355.11,361.5,356,360.59,356.45,358.88Z"/><path class="cls-7" d="M124.64,207.11a16.43,16.43,0,0,1-16.37,16.54c-8.54-.14-16.23-7.82-16.36-16.34a16.67,16.67,0,0,1,16.32-16.71A16.43,16.43,0,0,1,124.64,207.11Zm-17.22,9.09c7-.12,8.91-3.37,6-9.27-.39-.77-.88-1.29-.12-2.13,1.83-2,2-4.25.07-6.21-2.24-2.28-5.1-2.19-7.91-1.31-1.7.53-4.13,1.3-3.38,3.42.82,2.33,2.52.7,4-.13s3.13-.78,3.9.86-.37,2.68-2.07,3.06c-.95.21-2.09.37-2.1,1.67,0,1.11,1,1.14,1.8,1.29,2,.39,3.77,1.17,2.91,3.57s-3,1.55-4.68,1c-1.52-.45-3.64-2-4.31-.06-.76,2.21,1.75,3.23,3.6,3.93A7.48,7.48,0,0,0,107.42,216.2Z"/><path class="cls-2" d="M305,416.88c-5.83-5-12.62-10.17-18.56-16.17-5.65-5.7-5-12.37.57-16.41,5.18-3.76,13.17-2,17.18,3.8a5.45,5.45,0,0,1,.79,3.31C305.05,400.53,305,409.65,305,416.88Z"/><path class="cls-5" d="M76.65,272c-14.41,0-27.29,0-40.18,0-1.16,0-2.43-.12-2.8-1.52-.3-1.16.7-1.75,1.41-2.42,5.23-4.86,10.45-9.75,15.72-14.57,1-.92,2-2.54,3.74-1C61.57,258.63,68.57,264.85,76.65,272Z"/><path class="cls-2" d="M317.54,440.05c-.28,4.15-2.69,7.7-7,10-3.81,2-7,.63-10-1.91-1.26-1.07-2.59-2.06-3.89-3.1-3.87-3.09-5.64-6.93-3.94-11.83s5.71-7.19,10.64-7.7C308.62,424.93,317.66,433.9,317.54,440.05Z"/><path class="cls-5" d="M89.74,272.05c-8.17,2.78-12.36-5-18.12-9.62-1.5-1.2-.4-1.93.47-2.72,3.32-3,6.71-6,9.93-9.12,1.88-1.82,3.38-1.52,5.1.13q7,6.74,14.19,13.35c1.78,1.63,1.68,3.58,1.1,5.5S100,272.08,98,272.06C95.66,272,93.33,272.05,89.74,272.05Z"/><path class="cls-2" d="M322.06,469.78a11.06,11.06,0,0,1-6,9.65,9,9,0,0,1-10.3-.57,43.87,43.87,0,0,1-6.81-5.76c-3.67-4.1-3.43-9.42.21-13.54s7.56-4.73,12.68-1.51c2.24,1.41,4.5,2.83,6.62,4.41A9,9,0,0,1,322.06,469.78Z"/><path class="cls-2" d="M321.73,497.19a10.62,10.62,0,0,1-8.43,10.31c-3.52.72-10-3.3-11.58-7.1-.55-1.31.17-2.21.6-3.25,1.21-3,1.84-6.18.84-9.24-1.19-3.68,1.5-4.08,3.59-4.42C311.77,482.66,321.75,492,321.73,497.19Z"/><path class="cls-8" d="M298.43,503.61l-.36.6c-.11-.11-.32-.24-.3-.32a2.61,2.61,0,0,1,.32-.62Z"/><path class="cls-8" d="M528.81,388.54c0-33.46,0-66.91,0-100.36,0-5.74,2.91-8.55,8.77-8.59,17.83-.13,35.65-.08,53.47-.07,2,0,6.46,6.72,5.43,8.36-.84,1.35-2.41.66-3.64.67-14.49.09-29,.09-43.47.17-8.54,0-10.16,1.78-10.15,10.29,0,12.33,0,24.65,0,37,0,6.19,1.82,8.1,7.94,8.11q27,0,54-.08c6.08,0,8.09-2.06,8.13-8.15.07-11.49,0-23,.08-34.48,0-1.88-.87-5.15,2.89-3.78,2.56.93,7.65-3.69,7.55,3.66-.31,21.49-.21,43-.32,64.46,0,6.85-2.78,9.53-9.81,9.54-20.32.05-40.65.11-61,0-3.28,0-5.8.78-7.9,3.24-3.32,3.91-6.7,7.76-10.06,11.63Zm44.82-33v-.08c10.15,0,20.3,0,30.45,0,1.55,0,4,.59,4.11-1.63.15-2.42-2.33-1.85-3.82-1.85q-30.45,0-60.89,0c-1.45,0-3.58-.33-3.62,1.63-.05,2.4,2.3,1.89,3.82,1.89C553.67,355.6,563.65,355.57,573.63,355.57ZM562,366.19v-.05H581c1.48,0,3.37.19,3.31-1.93s-2-1.83-3.42-1.84H543.47c-1.48,0-3.5-.21-3.59,1.68-.11,2.31,2.09,2.12,3.7,2.13C549.73,366.21,555.87,366.19,562,366.19Z"/><path class="cls-3" d="M542.77,332.67c0-12,0-23.87,0-35.78,0-3.06,1.73-4.48,4.75-4.49,17,0,34-.1,50.92,0,4.22,0,6.93,3.09,6.95,7.19,0,9.65,0,19.3,0,29.41-4-2.15-6.47-5.69-9.48-8.55-5.94-5.64-6.82-5.72-12.71-.42-3,2.67-5.75,6.83-9.11,7.39-3.12.52-5.89-4.15-8.83-6.49-3.33-2.65-6.1-2.61-9.17.44-3.88,3.88-8,7.49-12.07,11.19C543.88,332.72,543.46,332.62,542.77,332.67Zm13.34-36.26a8.6,8.6,0,0,0-8.82,8.21,8.45,8.45,0,0,0,8.35,9.15,8.76,8.76,0,0,0,8.88-8.73A8.49,8.49,0,0,0,556.11,296.41Zm44.6,7a7.17,7.17,0,0,0-7.19-7.34,7.17,7.17,0,1,0,7.19,7.34Z"/><path class="cls-7" d="M630.67,277.48a16.91,16.91,0,0,1-16.57,16.61c-8.42,0-16.18-7.92-16.26-16.53a16.12,16.12,0,0,1,16.45-16.48C623.77,261.09,630.67,268,630.67,277.48Zm-15.8-10.06c-6.66,0-6.57,0-6.43,7.63,0,2.41.63,3.5,3.16,2.74,1.75-.52,3.61-1.33,4.86.79a3.41,3.41,0,0,1-.06,3.81c-1.35,1.77-3.28,1.11-5,.68-.64-.16-1.25-.63-1.86-.63a2.37,2.37,0,0,0-1.65.74c-.54.63,0,1.31.51,1.69,2.69,2,5.57,3,8.84,1.4,2.82-1.35,4.53-3.42,4.17-6.68s-2.53-4.83-5.72-5.2c-1.16-.13-2.93.62-3-1.55-.09-2.53,1.92-1.6,3.22-1.88,1.7-.37,4.74,1.09,4.52-2.13-.19-2.75-3-.92-4.5-1.39A3.34,3.34,0,0,0,614.87,267.42Z"/><path class="cls-5" d="M581.62,340.31c-12.81,0-24.08,0-35.35,0-1,0-2.16.13-2.54-1.06s.64-1.78,1.34-2.45c4.45-4.26,8.95-8.46,13.35-12.76,1.57-1.53,2.89-1.84,4.65-.24C568.84,329,574.68,334.15,581.62,340.31Z"/><path class="cls-5" d="M594.32,340.28c-9.58,0-10.91-3.62-15.88-7.86-1.43-1.22-1.16-2.14.15-3.13a4,4,0,0,0,.36-.35c9.65-10.32,9.65-10.31,19.95-.5,1.68,1.61,3.3,3.3,5.09,4.77s2,3.47,1.31,5.41-2.61,1.67-4.27,1.67Z"/><path class="cls-4" d="M114.71,130.7,69.53,158.11c5.2-10.79-.14-18-4.93-25.2-5.67-8.54-6.42-17,.27-25.3a3.11,3.11,0,0,0,.3-4c-.94-1.57-1.27-3.17.55-4.36A2.78,2.78,0,0,1,70,100.34c1.3,2.33,3.1,1.9,5.14,1.65,10.06-1.26,16.3,2.91,19.58,12.4a22.37,22.37,0,0,0,16.07,15C111.7,129.63,112.61,130,114.71,130.7Z"/><path class="cls-7" d="M97.38,107.47c.31-9.18,7.81-15.9,17.3-15.51,9,.36,16.18,8,15.71,16.72a16.83,16.83,0,0,1-17.23,15.92A16.28,16.28,0,0,1,97.38,107.47Zm15.49-3.58V115c0,1.2,0,2.48,1.62,2.59,1.87.13,2.07-1.19,2.07-2.65,0-3.82.07-7.64.08-11.46,0-5.33-.92-5.9-5.56-3.17-1.44.85-4,1.61-3,3.8S110.79,103.15,112.87,103.89Z"/><path class="cls-4" d="M89.14,150.71c3-1.86,5.7-3.64,8.51-5.31.76-.45,1.81-1.42,2.58-.49a4.18,4.18,0,0,1,.46,2.82,5.51,5.51,0,0,1-3.78,4.74C94.1,153.57,91.54,153.43,89.14,150.71Z"/><path class="cls-4" d="M76.59,470.41c4.75-8.3,1.3-15.8-1.46-23.23-3.57-9.59-3.42-18.26,5.41-25.09,1.73-1.34.91-2.85.72-4.49-.35-2.9,1.89-4.69,3.78-3,2.13,1.89,5.24,3.45,5.44,7.34.56,10.93,6.47,17.53,17,19.64,1.24.24,2.66,0,3.39,1.55,1.1,2.42,2.19,4.95,4.31,6.63s4.34,2.88,7.29,4.8Z"/><path class="cls-7" d="M110.89,405.11a16.53,16.53,0,0,1,15.94,17c-.22,8.63-8.07,16.13-16.66,15.93-8.87-.21-16.65-8.28-16.32-16.94A16.37,16.37,0,0,1,110.89,405.11Z"/><path class="cls-4" d="M94.73,468.39c3.41-1.29,6.49-2.39,9.51-3.64,2.75-1.13,2.84.45,2.4,2.32a5.7,5.7,0,0,1-4.37,4.27C99.26,472.17,96.91,471.15,94.73,468.39Z"/><path class="cls-4" d="M534.81,490.15l-46.94-18.8c10.08-2.41,12.46-10.79,15.26-18.53,3.61-10,9.43-16.78,21-16.34,1.88.07,2.56-1.25,3.28-2.58.82-1.5,2.1-2.27,3.72-1.66,2,.76,2.16,2.52,1.35,4.15-1.18,2.39.12,3.53,1.72,5,5.78,5.28,7.06,11.84,4.8,19.14-.93,3-2.21,5.92-3.43,8.83C532.8,476,530.74,482.61,534.81,490.15Z"/><path class="cls-4" d="M510.13,490.26a6.21,6.21,0,0,1-5.7-3.51c-.73-1.34-1.46-3-.43-4.18s2.37.35,3.54.69a21.14,21.14,0,0,1,4.11,1.72c1.34.72,4.1.45,3.66,2.44C514.83,489.66,512.21,490.05,510.13,490.26Z"/><path class="cls-7" d="M194.64,60.8a19.5,19.5,0,0,1-2.71,9.49C185.47,82,175.46,90.13,164.55,97.36a2.83,2.83,0,0,1-3.6,0c-10.63-7-20.54-14.76-26.91-26.15-2.07-3.71-3.41-7.67-2.92-11.92.75-6.7,4.46-11.51,10.77-13.74,6.58-2.33,12.71-.78,17.13,4.63,2.93,3.59,4.5,4.31,7.64.11,4.18-5.57,11.58-7,18.07-4.38A16.28,16.28,0,0,1,194.64,60.8Z"/><path class="cls-7" d="M301.56,23.91a19.88,19.88,0,0,1-3.47,10.26c-5.56,8.95-13.58,15.38-22.13,21.25-1.5,1-2.6.84-4-.08-8.44-5.49-16-11.9-21.56-20.41-2.68-4.13-4.46-8.61-3.38-13.67,1.18-5.49,4.44-9.33,10-10.67s10.47.07,13.77,4.69c2.53,3.54,3.84,3.34,6.43,0a13.06,13.06,0,0,1,15.67-4.19A13.84,13.84,0,0,1,301.56,23.91Z"/><path class="cls-8" d="M32.64,348.27a12.66,12.66,0,0,1,12.93-12.36,12.7,12.7,0,0,1,11.85,12.93c-.25,6.72-6.1,12.35-12.67,12.19S32.54,354.88,32.64,348.27Z"/><path class="cls-8" d="M371.09,314.46a9.8,9.8,0,1,1-9.74-10A10.27,10.27,0,0,1,371.09,314.46Z"/><path class="cls-1" d="M445.5,378.21c-11,0-22,0-32.95,0-6.41,0-8.83-2.26-8.85-8.67q-.07-24.21.17-48.43c.06-6,3-8.76,9.09-8.77q32.44-.07,64.9,0c6.4,0,9.4,3.11,9.43,9.62q.1,23.72,0,47.43c0,6.29-2.51,8.72-8.85,8.76-11,.07-22,0-32.95,0Zm38-16.25c0-14.13-.06-26.92,0-39.71,0-4.94-2.62-6.18-7-6.15-20.81.11-41.62.07-62.43.13-5.71,0-6.55.88-6.55,6.78q0,20,.08,39.95c0,1-.77,2.33,1,3.12,5.15-4.86,10.3-9.84,15.57-14.67,4.4-4,6.21-4,10.78-.36,2.45,2,4.94,4,7.22,6.14s3.81,2.55,6.14.06c2.71-2.91,5.89-5.39,8.86-8.06,6-5.42,7.09-5.44,12.85,0C474.25,353.12,478.43,357.12,483.52,362Zm-27.74,12.31L432.31,353.5c-1.85-1.63-3.4-1.38-5.17.33-5.64,5.43-11.4,10.73-17.12,16.08-1,.91-2.19,1.79-1.49,3.34s2.28,1.08,3.54,1.08c8.82,0,17.65,0,26.48-.05C444,374.26,449.36,374.27,455.78,374.27Zm13.88,0c3.88,0,6.37,0,8.86,0,1.86,0,4,.17,4.65-1.95s1.05-4.51-1-6.45c-5.3-5-10.54-10.1-15.79-15.17-1.64-1.58-3.19-2.16-5.13-.31-3.71,3.56-7.55,7-11.34,10.46-.9.82-1.8,1.59-.34,2.73C456,368.67,460.72,377.13,469.66,374.31Z"/><path class="cls-1" d="M445.49,391.66c-12.15,0-24.31,0-36.46,0-1.52,0-4,.63-4.13-1.56-.14-2.78,2.56-1.93,4.17-1.94q36.21-.13,72.43-.12c1.62,0,4.37-.88,4.34,1.82s-2.77,1.72-4.39,1.73c-12,.08-24,0-36,0Z"/><path class="cls-1" d="M430.54,404.22c-7.15,0-14.29,0-21.44,0-1.65,0-4.23.77-4.21-1.94,0-2.19,2.34-1.86,3.95-1.86q22.17,0,44.36.1c1.6,0,3.95-.35,4,1.84.05,2.83-2.6,1.88-4.21,1.9-7.48.09-15,0-22.43,0Z"/><path class="cls-1" d="M67.62,284.43c11.14,0,22.28,0,33.42,0,1.7,0,4.28-.54,4.21,2.1-.06,2.28-2.48,1.68-4,1.68q-33.67,0-67.34-.06c-1.54,0-4,.53-4-1.71,0-2.63,2.64-1.93,4.31-1.94,11.14-.06,22.27,0,33.41,0Z"/><path class="cls-1" d="M53.61,299.67c-6.82,0-13.64,0-20.45,0-1.41,0-3.5.31-3.45-1.79s2.08-1.72,3.52-1.72q21,0,41.9,0c1.46,0,3.45-.22,3.41,1.87s-2.08,1.73-3.48,1.74c-7.15.05-14.3,0-21.45,0Z"/><path class="cls-1" d="M372.91,556.26c4,0,8-.11,12,0,4.28.14,6.85,2.32,7,6.77.15,4.17-2.17,6.61-6.88,6.71-8,.18-16,.12-23.95,0-4.31-.06-6.88-2.34-7-6.76-.13-4.2,2.66-6.74,7.4-6.86,3.82-.1,7.65,0,11.48,0Zm0,9.78h11.95c2,0,3.28-.94,3.27-2.92s-1.32-3-3.28-3c-7.8,0-15.6,0-23.4-.06-1.94,0-3.42.84-3.53,2.71-.14,2.19,1.38,3.22,3.54,3.22Z"/><path class="cls-1" d="M48,223.93a9.28,9.28,0,1,1-10,8.78A9.35,9.35,0,0,1,48,223.93Zm4.74,9.59c0-3.81-2.22-5.75-5.56-5.8s-5.24,2.11-5.37,5.36c-.14,3.63,2.17,5.61,5.54,5.65C50.55,238.77,52.43,236.71,52.73,233.52Z"/><path class="cls-1" d="M89.1,239.34a7.71,7.71,0,0,1-7.8-7.87,8,8,0,0,1,8.2-8.07,8,8,0,0,1-.4,15.94Zm.42-3.8c2.29,0,3.7-1.62,3.71-4a3.91,3.91,0,0,0-3.86-4.26c-2.87-.14-4.21,1.82-4.25,4.34S86.63,235.49,89.52,235.54Z"/><path class="cls-1" d="M356.45,358.88c-.5,1.71-1.34,2.62-2.93,2.35a2,2,0,0,1-1.87-2.42,2.33,2.33,0,0,1,2.56-1.85C355.61,357,356.11,358,356.45,358.88Z"/><path class="cls-8" d="M107.42,216.2a7.48,7.48,0,0,1-2.32-.27c-1.85-.7-4.36-1.72-3.6-3.93.67-1.93,2.79-.39,4.31.06,1.7.51,3.81,1.35,4.68-1s-.92-3.18-2.91-3.57c-.78-.15-1.81-.18-1.8-1.29,0-1.3,1.15-1.46,2.1-1.67,1.7-.38,2.92-1.27,2.07-3.06s-2.55-1.64-3.9-.86-3.15,2.46-4,.13c-.75-2.12,1.68-2.89,3.38-3.42,2.81-.88,5.67-1,7.91,1.31,1.93,2,1.76,4.19-.07,6.21-.76.84-.27,1.36.12,2.13C116.33,212.83,114.42,216.08,107.42,216.2Z"/><path class="cls-1" d="M573.63,355.57c-10,0-20,0-30,0-1.52,0-3.87.51-3.82-1.89,0-2,2.17-1.63,3.62-1.63q30.43-.06,60.89,0c1.49,0,4-.57,3.82,1.85-.15,2.22-2.56,1.62-4.11,1.63-10.15.05-20.3,0-30.45,0Z"/><path class="cls-1" d="M562,366.19c-6.15,0-12.29,0-18.44,0-1.61,0-3.81.18-3.7-2.13.09-1.89,2.11-1.68,3.59-1.68h37.37c1.47,0,3.37-.23,3.42,1.84s-1.83,1.92-3.31,1.93H562Z"/><path class="cls-1" d="M556.11,296.41a8.49,8.49,0,0,1,8.41,8.63,8.76,8.76,0,0,1-8.88,8.73,8.45,8.45,0,0,1-8.35-9.15A8.6,8.6,0,0,1,556.11,296.41ZM556,309.92c2.6-.45,4.65-1.64,4.65-4.72,0-3.25-1.9-4.92-5-4.87s-4.51,2.13-4.55,4.89C551,308.21,553.07,309.54,556,309.92Z"/><path class="cls-1" d="M600.71,303.41a7.21,7.21,0,1,1-7.19-7.34A7.17,7.17,0,0,1,600.71,303.41Zm-3.62,0c-.29-1.83-1.05-3.38-3.35-3.43s-3.47,1-3.57,3.21a3.23,3.23,0,0,0,3.26,3.62C595.6,307,596.71,305.61,597.09,303.42Z"/><path class="cls-8" d="M614.87,267.42a3.34,3.34,0,0,1,1,0c1.54.47,4.31-1.36,4.5,1.39.22,3.22-2.82,1.76-4.52,2.13-1.3.28-3.31-.65-3.22,1.88.08,2.17,1.85,1.42,3,1.55,3.19.37,5.34,1.88,5.72,5.2s-1.35,5.33-4.17,6.68c-3.27,1.56-6.15.6-8.84-1.4-.51-.38-1.05-1.06-.51-1.69a2.37,2.37,0,0,1,1.65-.74c.61,0,1.22.47,1.86.63,1.77.43,3.7,1.09,5-.68a3.41,3.41,0,0,0,.06-3.81c-1.25-2.12-3.11-1.31-4.86-.79-2.53.76-3.12-.33-3.16-2.74C608.3,267.43,608.21,267.43,614.87,267.42Z"/><path class="cls-8" d="M112.87,103.89c-2.08-.74-3.69,2.51-4.78.19s1.55-3,3-3.8c4.64-2.73,5.58-2.16,5.56,3.17,0,3.82-.07,7.64-.08,11.46,0,1.46-.2,2.78-2.07,2.65-1.57-.11-1.61-1.39-1.62-2.59Z"/><path class="cls-3" d="M483.52,362c-5.09-4.84-9.27-8.84-13.48-12.8-5.76-5.41-6.81-5.39-12.85,0-3,2.67-6.15,5.15-8.86,8.06-2.33,2.49-4,2-6.14-.06s-4.77-4.15-7.22-6.14c-4.57-3.68-6.38-3.67-10.78.36-5.27,4.83-10.42,9.81-15.57,14.67-1.74-.79-1-2.13-1-3.12q-.12-20-.08-39.95c0-5.9.84-6.77,6.55-6.78,20.81-.06,41.62,0,62.43-.13,4.38,0,7,1.21,7,6.15C483.46,335,483.52,347.83,483.52,362Zm-59.65-20.09A9.73,9.73,0,0,0,433.6,332c0-5.78-4.87-10.72-10.33-10.55a10.2,10.2,0,0,0,.6,20.38Zm53.43-12.65a8.57,8.57,0,0,0-8.89-8.18,8.25,8.25,0,0,0-8,8.39,8.41,8.41,0,0,0,8.47,8.58A9,9,0,0,0,477.3,329.22Z"/><path class="cls-5" d="M455.78,374.27c-6.42,0-11.82,0-17.23,0-8.83,0-17.66.06-26.48.05-1.26,0-2.83.49-3.54-1.08s.51-2.43,1.49-3.34c5.72-5.35,11.48-10.65,17.12-16.08,1.77-1.71,3.32-2,5.17-.33Z"/><path class="cls-5" d="M469.66,374.31c-8.94,2.82-13.67-5.64-20.09-10.68-1.46-1.14-.56-1.91.34-2.73,3.79-3.48,7.63-6.9,11.34-10.46,1.94-1.85,3.49-1.27,5.13.31,5.25,5.07,10.49,10.15,15.79,15.17,2.05,1.94,1.72,4.27,1,6.45s-2.79,2-4.65,1.95C476,374.3,473.54,374.31,469.66,374.31Z"/><path class="cls-3" d="M372.92,566.05H361.47c-2.16,0-3.68-1-3.54-3.22.11-1.87,1.59-2.72,3.53-2.71,7.8,0,15.6,0,23.4.06,2,0,3.27,1,3.28,3s-1.3,2.92-3.27,2.92Z"/><path class="cls-8" d="M52.73,233.52c-.3,3.19-2.18,5.25-5.39,5.21-3.37,0-5.68-2-5.54-5.65.13-3.25,2.16-5.41,5.37-5.36S52.7,229.71,52.73,233.52Z"/><path class="cls-4" d="M89.52,235.54c-2.89,0-4.44-1.46-4.4-3.92s1.38-4.48,4.25-4.34a3.91,3.91,0,0,1,3.86,4.26C93.22,233.92,91.81,235.49,89.52,235.54Z"/><path class="cls-8" d="M556,309.92c-2.9-.38-5-1.71-4.91-4.7,0-2.76,1.53-4.84,4.55-4.89s5,1.62,5,4.87C560.62,308.28,558.57,309.47,556,309.92Z"/><path class="cls-4" d="M597.09,303.42c-.38,2.19-1.49,3.57-3.66,3.4a3.23,3.23,0,0,1-3.26-3.62c.1-2.19,1.41-3.26,3.57-3.21S596.8,301.59,597.09,303.42Z"/><path class="cls-1" d="M423.87,341.87a10.2,10.2,0,0,1-.6-20.38c5.46-.17,10.3,4.77,10.33,10.55A9.73,9.73,0,0,1,423.87,341.87Zm5.86-10.33c-.47-3.66-2.5-6-6.42-6.06a6.05,6.05,0,0,0-5.93,6.61A6.18,6.18,0,0,0,424,338C427.59,337.55,429.69,335.48,429.73,331.54Z"/><path class="cls-1" d="M477.3,329.22a9,9,0,0,1-8.46,8.79,8.41,8.41,0,0,1-8.47-8.58,8.25,8.25,0,0,1,8-8.39A8.57,8.57,0,0,1,477.3,329.22Zm-8.71,4.94c2.72-.41,4.75-1.8,4.73-4.74a4.29,4.29,0,0,0-4.38-4.51c-2.93-.1-4.69,1.62-4.67,4.61C464.28,332.21,465.88,333.72,468.59,334.16Z"/><path class="cls-8" d="M429.73,331.54c0,3.94-2.14,6-5.7,6.46a6.18,6.18,0,0,1-6.65-5.91,6.05,6.05,0,0,1,5.93-6.61C427.23,325.55,429.26,327.88,429.73,331.54Z"/><path class="cls-4" d="M468.59,334.16c-2.71-.44-4.31-2-4.32-4.64,0-3,1.74-4.71,4.67-4.61a4.29,4.29,0,0,1,4.38,4.51C473.34,332.36,471.31,333.75,468.59,334.16Z"/><path class="cls-8" d="M109.31,431.05a7.11,7.11,0,0,1-2.32-.26c-1.85-.71-4.36-1.73-3.6-3.93.67-1.93,2.79-.39,4.31.06,1.7.5,3.81,1.35,4.68-1.05s-.92-3.18-2.91-3.56c-.78-.15-1.81-.18-1.8-1.29,0-1.3,1.15-1.46,2.1-1.67,1.7-.38,2.92-1.27,2.07-3.06s-2.54-1.64-3.9-.86-3.15,2.46-4,.13c-.75-2.13,1.68-2.89,3.38-3.42,2.82-.89,5.67-1,7.91,1.31,1.93,2,1.76,4.19-.07,6.21-.76.83-.27,1.35.12,2.13C118.22,427.68,116.31,430.94,109.31,431.05Z"/></svg>